<svg width="220" height="88" viewBox="0 0 376 88" fill="none" xmlns="http://www.w3.org/2000/svg">
<g clip-path="url(#clip0_7_2)">
<path d="M13.004 4.03036e-06H4.1C1.874 4.03036e-06 0 1.874 0 4.1V82.583C0 84.808 1.874 86.683 4.1 86.683H13.003C15.228 86.683 17.103 84.808 17.103 82.583V4.1C17.103 1.874 15.229 4.03036e-06 13.004 4.03036e-06ZM55.759 69.932H28.466C26.123 69.932 24.366 71.806 24.366 74.032V82.582C24.366 84.808 26.123 86.682 28.466 86.682H55.759C58.102 86.682 59.859 84.808 59.859 82.582V74.032C59.859 71.806 58.102 69.932 55.759 69.932ZM143.027 80.943L113.274 42.521L140.802 6.677C141.856 5.388 141.973 3.748 141.27 2.343C140.567 0.937004 139.162 4.03036e-06 137.522 4.03036e-06H126.159C124.871 4.03036e-06 123.699 0.586004 122.879 1.64L62.202 80.943C61.265 82.231 61.148 83.871 61.85 85.394C62.553 86.8 63.959 87.62 65.482 87.62H76.962C78.25 87.62 79.422 87.034 80.242 85.98L102.615 56.344L124.988 85.98C125.808 87.034 126.979 87.62 128.385 87.62H139.747C141.27 87.62 142.793 86.8 143.496 85.277C144.199 83.871 143.964 82.231 143.027 80.943ZM81.295 28.582C81.998 29.636 83.287 30.222 84.575 30.222H95.586C97.226 30.222 98.632 29.402 99.335 27.996C100.038 26.473 99.92 24.833 98.866 23.545L82.35 1.64C81.647 0.586004 80.358 4.03036e-06 79.07 4.03036e-06H67.707C66.067 4.03036e-06 64.662 0.937004 63.959 2.343C63.256 3.748 63.373 5.388 64.427 6.677L81.295 28.582ZM208.625 53.298C209.328 53.064 210.031 52.712 210.616 52.478C220.222 48.261 225.259 40.061 225.259 28.699C225.259 19.914 222.447 12.885 216.708 7.731C211.202 2.577 203.822 4.03036e-06 194.803 4.03036e-06H157.2C154.975 4.03036e-06 153.1 1.874 153.1 4.1V12.534C153.1 14.759 154.975 16.634 157.2 16.634H193.747C198.316 16.634 201.947 17.688 204.524 20.031C206.984 22.139 208.155 24.833 208.155 28.699C208.155 30.925 207.804 32.799 206.984 34.087C204.641 38.07 200.073 39.944 193.279 39.944H157.2C154.974 39.944 153.1 41.819 153.1 44.044V82.583C153.1 84.808 154.974 86.683 157.2 86.683H166.103C168.328 86.683 170.203 84.808 170.203 82.583V56.577H191.053L208.858 84.807C209.561 85.979 210.85 86.682 212.255 86.682H222.915C224.321 86.682 225.726 85.862 226.429 84.573C227.249 83.167 227.132 81.645 226.312 80.356L208.625 53.298ZM295.307 70.635C292.379 69.932 289.919 68.526 287.811 66.535C283.476 62.552 281.485 57.047 281.485 49.55V4.217C281.487 3.66259 281.38 3.11322 281.169 2.60057C280.957 2.08793 280.647 1.62215 280.255 1.23012C279.863 0.838088 279.397 0.527552 278.884 0.316424C278.372 0.105296 277.822 -0.00224461 277.268 4.03036e-06H268.248C266.023 4.03036e-06 264.148 1.874 264.148 4.217V49.315C264.148 60.912 267.663 70.517 274.691 77.663C279.845 82.934 286.054 86.331 293.433 87.737C293.668 87.854 293.902 87.854 294.253 87.854C295.19 87.854 296.127 87.503 296.83 86.917C297.767 86.097 298.353 84.925 298.353 83.754V74.734C298.353 72.86 297.182 71.221 295.307 70.635ZM335.72 4.03036e-06H326.818C326.264 -0.00224461 325.714 0.105296 325.202 0.316424C324.689 0.527552 324.223 0.838088 323.831 1.23012C323.439 1.62215 323.129 2.08793 322.917 2.60057C322.706 3.11322 322.599 3.66259 322.601 4.217V49.55C322.601 57.047 320.609 62.67 316.275 66.535C314.167 68.526 311.707 69.815 308.778 70.635C306.904 71.22 305.733 72.86 305.733 74.617V83.637C305.733 84.925 306.201 86.097 307.256 86.917C307.982 87.5166 308.892 87.8475 309.833 87.854C310.184 87.854 310.418 87.854 310.653 87.737C318.033 86.331 324.241 82.934 329.395 77.663C336.423 70.517 339.937 60.913 339.937 49.315V4.217C339.939 3.66259 339.832 3.11322 339.621 2.60057C339.409 2.08793 339.099 1.62215 338.707 1.23012C338.315 0.838088 337.849 0.527552 337.336 0.316424C336.824 0.105296 336.274 -0.00224461 335.72 4.03036e-06ZM370.979 34.79H362.076C359.851 34.79 357.976 36.664 357.976 39.007V82.817C357.976 85.043 359.851 86.917 362.076 86.917H370.979C373.322 86.917 375.079 85.043 375.079 82.817V39.007C375.079 36.664 373.322 34.79 370.979 34.79ZM370.979 4.03036e-06H362.076C359.851 4.03036e-06 357.976 1.874 357.976 4.1V25.77C357.976 28.113 359.851 29.988 362.076 29.988H370.979C373.322 29.988 375.079 28.113 375.079 25.771V4.1C375.079 1.874 373.322 4.03036e-06 370.979 4.03036e-06Z" fill="#1666ee" fill-opacity="0.878431" stroke="#1666ee" stroke-width="2"/>
<rect x="231.5" y="36.5" width="24" height="15" rx="3.5" fill="#1666ee" fill-opacity="0.8784" stroke="#1666ee" stroke-width="2"/>
</g>
</svg>
